<svg width="79" height="58" viewBox="0 0 79 58" fill="none" xmlns="http://www.w3.org/2000/svg"><path fill-rule="evenodd" clip-rule="evenodd" d="M67.53 4.45157C71.1157 5.74112 74.8508 6.67304 78.5905 7.39646C74.4276 5.69171 70.5984 3.30615 67.53 0V4.45111V4.45157ZM26.8802 42.3522L40.7801 9.74712H49.12V42.3522H52.7345V49.2455H49.12V58H41.4752V49.2455H26.8802V42.3522V42.3522ZM41.4752 42.3522V24.4988L33.8994 42.3522H41.4752ZM26.7577 58H19.043L17.7227 49.2455H8.33991L7.01962 58H0L7.78419 9.74712H18.974L26.7582 58H26.7577ZM9.31334 42.6971H16.6803L12.9968 18.2949L9.31334 42.6971V42.6971ZM56.7831 9.78202H78.9991V15.2825C78.8154 14.2685 78.3949 13.4635 77.7405 12.8674C76.8278 12.0384 75.5034 11.6241 73.765 11.6241H71.9297C70.7286 11.6241 69.7141 11.8063 68.8878 12.1721C68.062 12.537 67.4665 13.1643 67.1018 14.0532C66.7367 13.3225 66.1791 12.7895 65.4278 12.4531C64.6765 12.1177 63.7218 11.9496 62.5628 11.9496H61.7585C60.0201 11.9496 58.7222 12.3299 57.8634 13.09C57.3493 13.546 56.9892 14.1697 56.7831 14.9624V9.78248V9.78202ZM78.9991 21.6958V26.684C78.7555 26.1129 78.4004 25.6311 77.9329 25.239C76.9567 24.4195 75.556 24.0097 73.7325 24.0097H56.7831V21.6958H78.9991ZM78.9991 31.0513V35.1511H75.8892V40.5128H56.7835V33.726H73.733C75.5565 33.726 76.9567 33.3163 77.9333 32.4968C78.4009 32.1047 78.756 31.6228 78.9995 31.0513H78.9991ZM78.9991 43.7714V48.5996C78.7555 47.9941 78.389 47.4869 77.9009 47.0775C76.9243 46.258 75.5245 45.8483 73.7006 45.8483H70.7072V48.9292H73.9259C74.7421 48.9292 75.3106 49.0824 75.6323 49.3879C75.954 49.6943 76.1149 50.104 76.1149 50.6176C76.1149 51.1307 75.954 51.5409 75.6323 51.8469C75.3106 52.1528 74.7421 52.3056 73.9259 52.3056H61.7594C60.9446 52.3056 60.3697 52.1528 60.0374 51.8469C59.7047 51.5409 59.5384 51.1307 59.5384 50.6176C59.5384 50.104 59.7043 49.6943 60.0374 49.3879C60.3697 49.0824 60.9446 48.9292 61.7594 48.9292H64.1733V45.8483H61.9847C60.1613 45.8483 58.761 46.258 57.7844 47.0775C57.3575 47.4356 57.0244 47.8681 56.784 48.3753V43.7718H79L78.9991 43.7714ZM78.9991 52.8137V58H56.7831V53.0376C57.0235 53.5439 57.3566 53.9772 57.7835 54.3353C58.7596 55.1548 60.1604 55.5646 61.9838 55.5646H73.7001C75.5245 55.5646 76.9238 55.1548 77.9004 54.3353C78.3885 53.9256 78.755 53.4183 78.9986 52.8137H78.9991ZM56.7831 30.4675V27.0911H73.9578C74.7727 27.0911 75.3412 27.2434 75.6634 27.5498C75.9856 27.8562 76.146 28.2659 76.146 28.7795C76.146 29.2926 75.9856 29.7023 75.6634 30.0083C75.3417 30.3143 74.7727 30.4675 73.9578 30.4675H56.7831ZM68.9687 18.4377H75.8887V16.5716C75.8887 16.0177 75.7278 15.5984 75.4061 15.3128C75.0844 15.0264 74.5044 14.8831 73.6676 14.8831H71.7039C70.6523 14.8831 69.9339 15.0454 69.5477 15.3713C69.1611 15.6977 68.9687 16.2357 68.9687 16.9863V18.4381V18.4377ZM59.7952 18.4377H65.7505V17.1635C65.7505 16.5512 65.5782 16.0725 65.2345 15.7267C64.8913 15.3813 64.2693 15.2081 63.3681 15.2081H62.1122C61.2969 15.2081 60.7069 15.3418 60.3427 15.6075C59.9776 15.8744 59.7952 16.2942 59.7952 16.8666V18.4368V18.4377ZM66.2733 8.73996H67.53H78.9922C75.1191 8.01518 71.2501 7.07509 67.53 5.77149L66.2733 5.31414C63.9403 4.43208 61.8335 3.44939 59.9597 2.36244V8.7395H66.2733V8.73996Z" fill="#000"/></svg>